<svg xmlns="http://www.w3.org/2000/svg" version="1.1" xmlns:xlink="http://www.w3.org/1999/xlink" width="512" height="512" x="0" y="0" viewBox="0 0 24 24" style="enable-background:new 0 0 512 512" xml:space="preserve" class=""><g><path fill="#ffa9a9" d="M4 14.6c.3.3.6.6.8.9h-.2c-.2-.2-.4-.5-.6-.9zM13.2 19.4a3.32 3.32 0 0 1-4.7 0v-.1c0-.3-.2-.7-.3-1 .7-.1 1.4-.4 2-.9 1.2-1.2 1.8-2.9 1.7-4.6l-.2-1.7c-.1-.6-.2-1.2-.5-1.7 1.9.2 3.4 1.8 3.5 3.7l.2 1.7c.1 1.7-.5 3.3-1.7 4.6z" opacity="1" data-original="#ffa9a9"></path><g fill="#ff6161"><path d="M15.7 13c-.2-2.4-2.2-4.4-4.6-4.6l-1.7-.2c-2-.2-4 .5-5.4 2-.8.8-1.3 1.9-1.3 3s.4 2.2 1.3 3c.2.2.4.3.6.3 1.5.2 2.7 1.4 3 3 0 .2.1.4.3.6.8.8 1.9 1.3 3 1.3s2.2-.4 3-1.3c1.4-1.4 2.1-3.4 2-5.4zm-3.2 5.7c-.8.8-2.2.9-3 .2-.4-2.1-2.1-3.8-4.2-4.2-.3-.4-.5-.9-.5-1.4 0-.6.2-1.2.7-1.6 1-1 2.4-1.5 3.8-1.4l1.7.2c1.5.1 2.7 1.3 2.8 2.8L14 15c0 1.3-.5 2.7-1.5 3.7zM21.2 12.9c-.5-.5-1.2-.7-1.9-.6-.6.1-1.3.4-1.8.9s-.8 1.1-.9 1.8.1 1.4.6 1.9c.4.4 1 .6 1.5.6h.4c.6-.1 1.3-.4 1.8-.9s.8-1.1.9-1.8-.1-1.4-.6-1.9zm-1.4 1.6c0 .2-.2.4-.3.6s-.4.3-.6.3h-.2v-.2c0-.2.2-.4.3-.6s.4-.3.6-.3h.2zM16.7 9.5h.4c.6-.1 1.3-.4 1.8-.9s.8-1.1.9-1.8-.1-1.4-.6-1.9-1.2-.7-1.9-.6c-.6.1-1.3.4-1.8.9s-.8 1.1-.9 1.8.1 1.4.6 1.9c.4.4.9.6 1.5.6zm-.1-2.2c0-.2.2-.4.3-.6s.4-.3.6-.3h.2v.2c0 .2-.2.4-.3.6s-.4.3-.6.3h-.2s-.1-.1 0-.2zM9.5 7.3c.7 0 1.5-.3 2.2-1 1.1-1.1 1.3-2.7.3-3.7-.5-.5-1.2-.7-1.9-.6s-1.3.4-1.8.9C7.2 4.1 7 5.7 8 6.7c.4.4.9.6 1.5.6zm.2-2.9c.2-.2.5-.4.7-.4H10.7c.1.1.1.5-.3.9-.5.4-.9.4-1 .4-.1-.1-.1-.6.3-.9z" fill="#ff6161" opacity="1" data-original="#ff6161"></path></g></g></svg>