<svg xmlns="http://www.w3.org/2000/svg" version="1.1" xmlns:xlink="http://www.w3.org/1999/xlink" width="512" height="512" x="0" y="0" viewBox="0 0 511.999 511.999" style="enable-background:new 0 0 512 512" xml:space="preserve" class=""><g><path d="M126.342 504.386c-6.633.893-12.921-3.488-14.297-10.142-3.853-18.628.698-36.651 12.484-49.45 12.596-13.677 32.303-19.995 54.069-17.332 31.01 3.795 36.933-12.01 44.729-40.272.999-3.622 2.032-7.367 3.151-10.956 2.115-6.78 9.325-10.561 16.105-8.448 6.781 2.115 10.562 9.326 8.448 16.105-.993 3.182-1.924 6.56-2.911 10.137-3.802 13.787-8.112 29.414-18.284 41.412-12.336 14.551-30.625 20.456-54.363 17.552-13.638-1.668-25.01 1.609-32.025 9.226-6.194 6.726-8.401 16.249-6.216 26.816 1.439 6.955-3.033 13.759-9.989 15.198-.3.063-.601.114-.901.154z" style="" fill="#dee2e5" data-original="#dee2e5"></path><path d="M126.342 504.386c.299-.04.6-.092.901-.154 6.955-1.439 11.427-8.243 9.989-15.198-.608-2.941-.864-5.797-.8-8.539-8.358-1.839-18.583-.43-25.697 1.62a63.586 63.586 0 0 0 1.311 12.128c1.376 6.655 7.664 11.036 14.296 10.143z" style="" fill="#7694e4" data-original="#7694e4"></path><path d="M283.216 502.091c-2.256.304-4.6.236-6.955-.256-11.124-2.324-18.257-13.225-15.934-24.349 5.122-24.518-6.496-44.642-15.022-51.567-8.821-7.164-10.164-20.123-2.999-28.944 7.164-8.822 20.123-10.163 28.943-2.999 11.083 9.001 20.216 22.445 25.715 37.855 6.164 17.277 7.426 35.973 3.646 54.07-1.832 8.769-8.995 15.059-17.394 16.19z" style="" fill="#dee2e5" data-original="#dee2e5"></path><path d="M283.216 502.091c-2.256.304-4.6.236-6.955-.256-11.124-2.324-18.257-13.225-15.934-24.349 5.122-24.518-6.496-44.642-15.022-51.567-8.821-7.164-10.164-20.123-2.999-28.944 7.164-8.822 20.123-10.163 28.943-2.999 11.083 9.001 20.216 22.445 25.715 37.855 6.164 17.277 7.426 35.973 3.646 54.07-1.832 8.769-8.995 15.059-17.394 16.19z" style="opacity:0.1;enable-background:new ;" fill="#000000" opacity="1" data-original="#000000"></path><path d="M114.645 394.572c-6.867.926-14.037-1.64-18.73-7.409-7.17-8.816-5.836-21.775 2.98-28.946 27.093-22.034 79.041-25.458 105.619-20.835 11.195 1.948 18.692 12.603 16.744 23.798-1.948 11.195-12.601 18.693-23.798 16.744-21.484-3.738-58.658.879-72.6 12.218a20.474 20.474 0 0 1-10.215 4.43zM371.699 474.524c-1.18.159-2.389.217-3.62.166-11.354-.469-20.178-10.053-19.71-21.407.83-20.088-11.342-28.342-23.881-35.075l-.552-.297c-10.007-5.384-13.755-17.861-8.372-27.868 5.384-10.007 17.862-13.755 27.869-8.371l.522.28c11.746 6.308 47.494 25.502 45.531 73.029-.418 10.123-8.083 18.236-17.787 19.543z" style="" fill="#dee2e5" data-original="#dee2e5"></path><path d="M371.699 474.524c-1.18.159-2.389.217-3.62.166-11.354-.469-20.178-10.053-19.71-21.407.83-20.088-11.342-28.342-23.881-35.075l-.552-.297c-10.007-5.384-13.755-17.861-8.372-27.868 5.384-10.007 17.862-13.755 27.869-8.371l.522.28c11.746 6.308 47.494 25.502 45.531 73.029-.418 10.123-8.083 18.236-17.787 19.543z" style="opacity:0.1;enable-background:new ;" fill="#000000" opacity="1" data-original="#000000"></path><path d="M451.602 352.368a20.483 20.483 0 0 1-8.291-.586c-31.183-8.741-56.467-6.71-79.566 6.395-9.887 5.607-22.442 2.138-28.049-7.744-5.607-9.884-2.14-22.442 7.744-28.049 32.816-18.614 69.116-21.959 110.979-10.226 10.942 3.067 17.326 14.424 14.258 25.366-2.287 8.157-9.181 13.78-17.075 14.844z" style="" fill="#dee2e5" data-original="#dee2e5"></path><path d="M229.837 435.439c10.171-11.998 14.481-27.624 18.284-41.412.986-3.577 1.918-6.955 2.911-10.137 2.114-6.78-1.668-13.991-8.448-16.106-6.78-2.113-13.991 1.668-16.105 8.448-1.119 3.589-2.152 7.334-3.151 10.956-5.626 20.4-10.282 34.305-24.097 39.038a109.348 109.348 0 0 0 5.136 4.458c5.604 4.559 11.653 8.532 18.023 11.928a50.555 50.555 0 0 0 7.447-7.173z" style="opacity:0.2;enable-background:new ;" fill="#000000" opacity="1" data-original="#000000"></path><path d="M369.601 413.812a112.684 112.684 0 0 0 5.348-7.056c-10.728-13.918-24.512-21.324-30.993-24.804l-.522-.28c-10.007-5.384-22.485-1.635-27.869 8.371-5.383 10.007-1.636 22.484 8.372 27.868l.552.297c8.157 4.38 16.154 9.407 20.522 17.913a114.57 114.57 0 0 0 24.59-22.309zM294.138 455.279a123.24 123.24 0 0 0 7.945-1.338 99.332 99.332 0 0 0-5.119-22.108c-5.499-15.41-14.631-28.854-25.715-37.855-8.82-7.164-21.779-5.823-28.943 2.999-7.165 8.821-5.822 21.78 2.999 28.944 5.732 4.656 12.855 15.283 15.355 29.195a119.46 119.46 0 0 0 17.152 1.262c5.421 0 10.913-.37 16.326-1.099z" style="opacity:0.1;enable-background:new ;" fill="#000000" opacity="1" data-original="#000000"></path><path d="M335.696 350.433c5.607 9.883 18.162 13.351 28.049 7.744 9.613-5.453 19.606-8.982 30.243-10.622.018-4.704-.282-9.437-.92-14.175a101.807 101.807 0 0 0-7.203-26.226c-14.828 2.502-28.922 7.57-42.425 15.229-9.884 5.608-13.351 18.166-7.744 28.05zM221.259 361.18c1.948-11.196-5.549-21.85-16.744-23.798-9.965-1.733-23.497-2.336-37.949-1.25a101.451 101.451 0 0 0 2.606 40.993c10.263-.819 20.348-.582 28.289.799 11.197 1.95 21.85-5.547 23.798-16.744z" style="opacity:0.2;enable-background:new ;" fill="#000000" opacity="1" data-original="#000000"></path><ellipse cx="279.758" cy="348.626" rx="88.187" ry="94.897" style="" transform="scale(-1) rotate(82.328 398.759 -319.988)" fill="#dee2e5" data-original="#dee2e5"></ellipse><path d="M277.687 436.957c-46.781-22.428-41.251-82.058-37.361-108.332l-7.522-55.846c-32.256 17.738-51.984 52.148-47.083 88.531 5.917 43.932 45.7 75.589 91.966 75.647z" style="opacity:0.1;enable-background:new ;" fill="#000000" opacity="1" data-original="#000000"></path><path d="M477.977 143.021c13.107 97.308-79.144 163.284-201.682 179.79S47.335 300.102 34.228 202.794 97.155 29.611 234.312 11.136C371.469-7.339 464.87 45.712 477.977 143.021z" style="" fill="#82c7e6" data-original="#82c7e6"></path><path d="M276.682 325.683c-39.037 5.258-75.648 3.823-105.222-5.712l-4.033 18.266c-1.515 6.86 2.773 13.658 9.616 15.25 29.997 6.977 65.264 7.968 103.759 2.783s72.243-15.473 99.325-30.138c6.177-3.345 8.514-11.036 5.238-17.25l-8.723-16.548c-25.997 17.02-60.924 28.091-99.96 33.349z" style="" fill="#7694e4" data-original="#7694e4"></path><path d="M202.123 204.804c16.324-17.922 25.12-45.502-6.001-80.328-31.367-35.101-71.626-39.536-101.556-31.857a19.19 19.19 0 0 0-14.157 15.542c-4.859 30.514 3.306 70.186 41.175 98.148 37.574 27.743 64.215 16.417 80.539-1.505z" style="" fill="#eda751" data-original="#eda751"></path><path d="M79.79 112.813c-3.338 29.808 5.82 66.932 41.795 93.495 32.567 24.047 56.915 18.735 73.457 5.224-23.745-82.526-80.934-97.555-115.252-98.719z" style="" fill="#ff91ab" data-original="#ff91ab"></path><path d="M316.598 189.384c-20.484-12.964-36.264-37.233-15.467-79.053 20.961-42.151 58.612-57.08 89.507-57.594a19.187 19.187 0 0 1 17.764 11.243c12.76 28.141 15.383 68.559-13.738 105.545-28.893 36.696-57.581 32.823-78.066 19.859z" style="" fill="#eda751" data-original="#eda751"></path><path d="M410.231 68.303c11.106 27.863 12.097 66.087-15.567 101.222-25.043 31.807-49.929 33.127-69.456 24.475 1.061-85.87 52.235-115.495 85.023-125.697z" style="" fill="#ff91ab" data-original="#ff91ab"></path><path d="M422.627 198.833c9.862 73.214-57.51 114.937-145.945 126.849-88.435 11.912-164.445-10.498-174.307-83.712S156.208 99.748 244.644 87.836s168.12 37.784 177.983 110.997z" style="" fill="#ffdc9c" data-original="#ffdc9c"></path><ellipse cx="184.333" cy="234.061" rx="23.296" ry="29.249" style="" transform="scale(-1) rotate(82.328 267.719 -210.84)" fill="#ff91ab" data-original="#ff91ab"></ellipse><ellipse cx="341.505" cy="212.918" rx="23.296" ry="29.249" style="" transform="rotate(82.328 341.521 212.928)" fill="#ff91ab" data-original="#ff91ab"></ellipse><circle cx="292.583" cy="392.885" r="19.27" style="" fill="#bd4568" data-original="#bd4568"></circle><path d="M267.277 413.667a7.5 7.5 0 0 1-3.489-14.144l50.636-26.552a7.5 7.5 0 0 1 6.967 13.284l-50.636 26.552a7.464 7.464 0 0 1-3.478.86z" style="" fill="#7694e4" data-original="#7694e4"></path><circle cx="435.595" cy="404.615" r="15.243" style="" fill="#82c7e6" data-original="#82c7e6"></circle><circle cx="58.61" cy="328.704" r="15.243" style="" fill="#7694e4" data-original="#7694e4"></circle><circle cx="87.091" cy="432.595" r="15.243" style="" fill="#ff91ab" data-original="#ff91ab"></circle><path d="M193.882 18.65C82.437 45.493 22.472 115.518 34.228 202.794c9.93 73.719 73.422 114.086 156.898 122.153 25.504 4.865 54.775 4.882 85.555.736a3.17 3.17 0 0 0 .096-.014C95.488 301.783 139.033 96.211 193.882 18.65z" style="opacity:0.1;enable-background:new ;" fill="#000000" opacity="1" data-original="#000000"></path><path d="M347.861 214.716c.651 0 1.313-.086 1.972-.264 7.143-1.941 24.778-3.02 31.342-2.29 4.12.462 7.825-2.507 8.285-6.623a7.5 7.5 0 0 0-6.623-8.285c-8.334-.93-27.743.224-36.938 2.722a7.502 7.502 0 0 0 1.962 14.74zM81.353 328.703c0-12.541-10.203-22.744-22.744-22.744s-22.743 10.203-22.743 22.744c0 12.54 10.203 22.743 22.743 22.743s22.744-10.202 22.744-22.743zm-22.745 7.743c-4.27 0-7.743-3.474-7.743-7.743 0-4.27 3.474-7.744 7.743-7.744 4.27 0 7.744 3.474 7.744 7.744s-3.474 7.743-7.744 7.743zm28.487 73.409c-12.541 0-22.743 10.203-22.743 22.743 0 12.541 10.203 22.744 22.743 22.744 12.541 0 22.744-10.203 22.744-22.744 0-12.54-10.203-22.743-22.744-22.743zm0 30.487c-4.27 0-7.743-3.474-7.743-7.744s3.474-7.743 7.743-7.743c4.27 0 7.744 3.474 7.744 7.743 0 4.271-3.474 7.744-7.744 7.744zm369.348-135.406c-24.345-6.824-46.566-8.721-67.733-5.792l-.701-1.331c29.109-14.534 52.83-32.931 69.477-54.048 23.592-29.925 32.987-64.158 27.924-101.747-6.805-50.519-34.17-90.262-79.139-114.935C361.583 2.565 301.77-5.52 233.31 3.702c-68.464 9.222-124.001 32.844-160.609 68.314-36.837 35.691-52.712 81.26-45.907 131.779 5.063 37.588 23.181 68.115 53.851 90.731 21.641 15.958 49.385 27.423 81.302 33.737l-.168.761c-18.643 1.797-47.745 7.212-67.617 23.373-12.01 9.768-13.834 27.486-4.066 39.497 5.404 6.644 13.32 10.368 21.715 10.368 1.27 0 2.551-.085 3.835-.258a28.047 28.047 0 0 0 13.946-6.043c8.878-7.22 33.434-12.375 54.536-11.756 4.617 11.329 11.469 21.488 19.993 30.103-4.463 4.942-11.2 7.352-24.613 5.709-24.189-2.963-46.244 4.218-60.497 19.695-13.443 14.597-18.66 35.025-14.312 56.049 1.971 9.527 10.448 16.238 19.944 16.237a20.291 20.291 0 0 0 4.118-.424c10.994-2.274 18.088-13.068 15.814-24.061-1.683-8.137-.124-15.317 4.388-20.216 5.335-5.792 14.423-8.225 25.598-6.863 26.397 3.229 46.922-3.548 60.995-20.147a62.497 62.497 0 0 0 2.691-3.433 104.952 104.952 0 0 0 8.98 3.126c3.733 6.327 9.261 19.193 5.756 35.971-3.165 15.154 6.589 30.058 21.743 33.224 1.906.398 3.832.597 5.758.597 1.245 0 2.491-.083 3.73-.25 11.769-1.585 21.307-10.462 23.734-22.089a107.958 107.958 0 0 0-.641-46.996 107.118 107.118 0 0 0 23.388-9.58c6.572 4.988 10.628 11.171 10.176 22.114-.31 7.493 2.317 14.658 7.397 20.175 5.08 5.517 12.005 8.725 19.494 9.035a28.258 28.258 0 0 0 4.934-.227c12.506-1.685 22.398-11.599 24.058-24.111a7.5 7.5 0 0 0-14.869-1.972c-.772 5.821-5.374 10.433-11.189 11.216-.759.102-1.534.139-2.312.105a12.99 12.99 0 0 1-9.08-4.208 12.992 12.992 0 0 1-3.445-9.396c.629-15.23-5.292-24.874-12.115-31.317 7.001-5.394 13.222-11.605 18.508-18.449 7.151 6.897 12.421 14.78 15.692 23.524a7.5 7.5 0 0 0 7.025 4.874c.873 0 1.761-.153 2.627-.478a7.5 7.5 0 0 0 4.397-9.652c-4.382-11.715-11.572-22.115-21.397-30.999 5.549-10.108 9.25-21.156 10.733-32.696 17.565-6.103 36.752-5.897 59.955.606a27.9 27.9 0 0 0 11.316.797 28.064 28.064 0 0 0 23.295-20.251c2.024-7.221 1.116-14.799-2.559-21.336-3.672-6.536-9.673-11.251-16.893-13.275zM132.86 289.187a7.5 7.5 0 0 0-10.606.046 7.498 7.498 0 0 0 .046 10.606 94.6 94.6 0 0 0 1.91 1.831c-47.175-19.268-76.345-53.831-82.547-99.876-6.144-45.609 8.199-86.76 41.478-119.004 34.288-33.221 86.909-55.429 152.173-64.22 65.266-8.792 121.886-1.3 163.743 21.666 40.624 22.289 65.346 58.178 71.489 103.787 6.207 46.085-12.817 87.164-53.281 118.237 11.59-18.917 15.992-40.696 12.795-64.427-2.18-16.186-7.563-31.498-15.805-45.463 13.959-28.855 14.374-61.948.98-91.487a26.684 26.684 0 0 0-24.72-15.645c-31.136.518-60.033 14.078-80.035 37.37-21.38-4.463-44.02-5.277-66.836-2.204-22.817 3.074-44.434 9.849-63.87 19.81-25.451-17.169-56.905-22.601-87.07-14.86a26.643 26.643 0 0 0-19.699 21.628c-5.101 32.03 4.055 63.834 25.153 87.967-4.254 15.647-5.394 31.837-3.214 48.024 1.192 8.854 3.344 17.266 6.394 25.001a7.501 7.501 0 0 0 13.955-5.503c-2.607-6.61-4.451-13.844-5.482-21.5-2.046-15.19-.733-30.425 3.716-45.116.164-.411.294-.832.383-1.261 5.342-16.915 14.861-33.082 28.252-47.591a149.77 149.77 0 0 1 7.313-7.385c.091-.077.174-.167.262-.249 9.641-9.047 20.544-16.908 32.422-23.448a7.486 7.486 0 0 0 1.284-.694c18.729-10.102 39.826-16.943 62.206-19.957 22.378-3.016 44.533-2.001 65.268 2.785.466.158.943.268 1.424.33 13.099 3.143 25.614 7.801 37.241 13.915.074.042.149.076.224.115a149.98 149.98 0 0 1 9.33 5.36c16.752 10.448 30.21 23.519 39.837 38.418.199.391.436.763.704 1.115 8.178 12.99 13.475 27.333 15.521 42.525 4.297 31.898-6.916 58.655-33.328 79.527a129.65 129.65 0 0 1-9.458 6.786c-5.113 3.341-10.633 6.47-16.533 9.376a7.669 7.669 0 0 0-.48.24c-21.832 10.674-48.833 18.326-79.712 22.485-30.913 4.165-58.658 3.944-82.226-.428a7.512 7.512 0 0 0-1.607-.34c-.136-.013-.27-.029-.405-.042-5.908-1.168-11.541-2.604-16.891-4.302a7.57 7.57 0 0 0-1.474-.491c-.05-.011-.1-.015-.151-.025-16.243-5.368-29.762-13.21-40.073-23.432zM405.628 77.813c4.352 14.013 7.648 35.832-1.419 59.973-9.918-12.478-22.39-23.538-37.14-32.736-.66-.411-1.328-.809-1.994-1.211 13.08-13.401 28.133-21.352 40.553-26.026zm-54.195 18.636a174.179 174.179 0 0 0-24.452-9.591c23.403-23.252 51.794-26.422 63.782-26.621 3.381-.069 6.59 1.377 8.818 3.826-14.82 5.677-32.849 15.511-48.148 32.386zm-262.499 9.457a11.645 11.645 0 0 1 7.495-6.023c11.614-2.98 39.831-7.435 68.554 8.796a174.19 174.19 0 0 0-21.042 15.719c-19.221-12.226-39.212-16.938-55.007-18.492zm43.805 29.228c-.536.564-1.075 1.124-1.603 1.696-11.79 12.773-20.892 26.739-27.154 41.397-15.133-20.881-17.726-42.795-17.238-57.46 13.215 1.221 29.835 4.906 45.995 14.367zm-12.609 249.19a13.051 13.051 0 0 1-6.486 2.816c-4.556.612-9.011-1.146-11.909-4.708-4.549-5.594-3.7-13.846 1.894-18.395 12.285-9.991 32.498-17.024 56.29-19.733 1.321 7.863 7.225 14.584 15.426 16.491.936.218 1.894.406 2.839.612.037.299.064.609.104.905a90.46 90.46 0 0 0 1.221 6.856c-21.7.183-47.281 5.317-59.379 15.156zm103.986 46.265c-10.601 12.503-26.66 17.533-47.733 14.958-16.1-1.97-29.756 2.147-38.453 11.59-7.874 8.551-10.731 20.418-8.043 33.416a5.365 5.365 0 0 1-4.546 6.399c-2.771.371-5.384-1.485-5.952-4.229-3.357-16.232.527-31.85 10.656-42.85 10.94-11.879 28.306-17.335 47.642-14.968 17.33 2.119 29.318-1.233 37.751-10.775a101.145 101.145 0 0 0 9.07 5.973c-.131.162-.259.329-.392.486zm69.152 53.779a13.098 13.098 0 0 1-11.053 10.29 13.07 13.07 0 0 1-4.42-.164c-7.058-1.475-11.601-8.416-10.126-15.474 2.971-14.222.89-26.32-2.271-35.303 4.098.477 8.258.742 12.471.742 4.835 0 9.742-.323 14.678-.988l.069-.01a92.909 92.909 0 0 1 .652 40.907zm-2.723-55.764c-46.331 6.247-88.816-22.394-96.751-64.356 12.692 1.867 26.032 2.824 39.994 2.824 15.301 0 31.331-1.122 48.014-3.369 31.9-4.297 60.406-11.932 85.021-22.743 3.44 42.559-29.959 81.405-76.278 87.644zm86.011-109.067c-26.534 14.369-59.088 24.227-96.755 29.301-37.669 5.075-71.671 4.181-101.06-2.655-2.826-.657-4.617-3.496-3.991-6.327l.455-2.059.01-.043 1.54-6.977c4.344.621 8.752 1.155 13.225 1.593 13.426 2.551 28.021 3.851 43.643 3.851 13.914 0 28.645-1.027 44.061-3.103 32.412-4.366 60.945-12.494 84.268-23.883a299.929 299.929 0 0 0 12.443-5.079l3.512 6.663.028.053.796 1.511c1.351 2.562.376 5.773-2.175 7.154zm84.898 15.963a13.075 13.075 0 0 1-10.855 9.435c-1.76.236-3.529.111-5.264-.375-23.61-6.617-44.457-7.288-63.381-2.04a89.964 89.964 0 0 0-.694-7.55c-.039-.294-.095-.598-.138-.894.858-.45 1.729-.89 2.576-1.349 7.148-3.871 11.037-11.502 10.573-19.162 18.065-1.973 37.169-.059 58.122 5.815a12.992 12.992 0 0 1 7.869 6.183 12.978 12.978 0 0 1 1.192 9.937zm-25.855 46.372c-12.541 0-22.743 10.203-22.743 22.744s10.202 22.743 22.743 22.743 22.743-10.203 22.743-22.743c0-12.542-10.202-22.744-22.743-22.744zm0 30.486c-4.27 0-7.743-3.474-7.743-7.743 0-4.27 3.474-7.744 7.743-7.744 4.27 0 7.743 3.474 7.743 7.744s-3.473 7.743-7.743 7.743zM184.188 230.252a7.5 7.5 0 0 0-7.499-7.481h-.019c-9.528.024-28.55 4.048-36.341 7.149a7.5 7.5 0 0 0 5.548 13.936c6.135-2.442 23.428-6.067 30.831-6.085a7.5 7.5 0 0 0 7.48-7.519zm6.514-20.485a7.501 7.501 0 1 0 14.866-2.002l-1.379-10.238a7.5 7.5 0 0 0-14.866 2.002l1.379 10.238zm153.248 27.287c7.345.928 24.063 6.648 29.851 9.825a7.5 7.5 0 0 0 10.184-2.966 7.501 7.501 0 0 0-2.967-10.184c-7.35-4.034-25.734-10.364-35.189-11.558-4.096-.511-7.861 2.392-8.38 6.501a7.5 7.5 0 0 0 6.501 8.382zm-151.538 11.154a7.499 7.499 0 0 0-9.802-4.051c-8.802 3.653-24.855 14.622-30.875 20.457a7.5 7.5 0 1 0 10.441 10.77c4.74-4.595 19.347-14.535 26.186-17.374a7.5 7.5 0 0 0 4.05-9.802zm46.255-39.467a29.272 29.272 0 0 0 23.207 7.012 29.266 29.266 0 0 0 20.522-12.902 7.5 7.5 0 0 0-12.524-8.258 14.261 14.261 0 0 1-10.002 6.294 14.27 14.27 0 0 1-11.313-3.423 7.5 7.5 0 1 0-9.89 11.277zm75.392-15.59a7.5 7.5 0 1 0 14.866-2.002l-1.379-10.238a7.501 7.501 0 0 0-14.866 2.002l1.379 10.238z" fill="#000000" opacity="1" data-original="#000000"></path></g></svg>